<?xml version="1.0" encoding="utf-8"?>
<!-- Generator: Adobe Illustrator 16.0.0, SVG Export Plug-In . SVG Version: 6.00 Build 0)  -->
<!DOCTYPE svg PUBLIC "-//W3C//DTD SVG 1.1//EN" "http://www.w3.org/Graphics/SVG/1.1/DTD/svg11.dtd">
<svg version="1.1" id="Capa_1" xmlns="http://www.w3.org/2000/svg" xmlns:xlink="http://www.w3.org/1999/xlink" x="0px" y="0px"
	 width="24px" height="24px" viewBox="0 0 24 24" enable-background="new 0 0 24 24" xml:space="preserve">
<g>
	<path fill="#EAB54E" d="M19.971,6.279v14.199c0.016,0.274-0.195,0.511-0.472,0.524l0,0H0.973c-0.274-0.015-0.486-0.25-0.472-0.524
		V3.52C0.488,3.246,0.698,3.011,0.973,2.996h5.82C6.96,2.999,7.111,3.093,7.189,3.24l1.449,2.516h10.86
		C19.773,5.771,19.984,6.004,19.971,6.279L19.971,6.279z"/>
	<path fill="#F6C863" d="M23.469,9.864l-3.332,10.612c-0.082,0.304-0.354,0.518-0.668,0.527H1.166
		c-0.286-0.021-0.499-0.271-0.477-0.559c0.004-0.049,0.015-0.094,0.031-0.141L4.021,9.793c0.1-0.359,0.422-0.613,0.795-0.626h18.207
		c0.285,0.024,0.498,0.274,0.475,0.562C23.494,9.773,23.484,9.82,23.469,9.864z"/>
</g>
</svg>
